<svg width="40" height="40" viewBox="0 0 40 40" fill="none" xmlns="http://www.w3.org/2000/svg">
<g clip-path="url(#clip0_4_85)">
<path d="M20 40C31.0457 40 40 31.0457 40 20C40 8.9543 31.0457 0 20 0C8.9543 0 0 8.9543 0 20C0 31.0457 8.9543 40 20 40Z" fill="#FF244A"/>
<path d="M25.5 29.0001H14.5C13.1193 29.0001 12 27.8808 12 26.5001C12 22.4194 18 22.5001 20 22.5001C22 22.5001 28 22.4194 28 26.5001C28 27.8808 26.8807 29.0001 25.5 29.0001Z" stroke="white" stroke-width="2" stroke-linecap="round" stroke-linejoin="round"/>
<path d="M20 19C22.2091 19 24 17.2091 24 15C24 12.7909 22.2091 11 20 11C17.7909 11 16 12.7909 16 15C16 17.2091 17.7909 19 20 19Z" stroke="white" stroke-width="2" stroke-linecap="round" stroke-linejoin="round"/>
</g>
<defs>
<clipPath id="clip0_4_85">
<rect width="40" height="40" fill="white"/>
</clipPath>
</defs>
</svg>
