<svg width="64" height="64" viewBox="0 0 64 64" fill="none" xmlns="http://www.w3.org/2000/svg">
<g clip-path="url(#clip0_4_65)">
<path d="M32 64C49.6731 64 64 49.6731 64 32C64 14.3269 49.6731 0 32 0C14.3269 0 0 14.3269 0 32C0 49.6731 14.3269 64 32 64Z" fill="#0063FF"/>
<path d="M31.5 44H35.4231M31.5 44H27.5769M31.5 44V40M31.5 40C36.7308 40 40 36.4183 40 32M31.5 40C26.2692 40 23 36.4183 23 32M31.5 36C35.6477 36 36.0769 30.6667 36.0769 28C36.0769 25.3333 35.6477 20 31.5 20C27.3523 20 26.9231 25.3333 26.9231 28C26.9231 30.6667 27.3523 36 31.5 36Z" stroke="white" stroke-width="2" stroke-linecap="round" stroke-linejoin="round"/>
</g>
<defs>
<clipPath id="clip0_4_65">
<rect width="64" height="64" fill="white"/>
</clipPath>
</defs>
</svg>
