<svg width="40" height="40" viewBox="0 0 40 40" fill="none" xmlns="http://www.w3.org/2000/svg">
<g clip-path="url(#clip0_4_70)">
<path d="M20 40C31.0457 40 40 31.0457 40 20C40 8.9543 31.0457 0 20 0C8.9543 0 0 8.9543 0 20C0 31.0457 8.9543 40 20 40Z" fill="#FF244A"/>
<path d="M18 9C18 13.9706 22.0294 18 27 18C22.0294 18 18 22.0294 18 27C18 22.0294 13.9706 18 9 18C13.9706 18 18 13.9706 18 9Z" stroke="white" stroke-width="2" stroke-linecap="round" stroke-linejoin="round"/>
<path d="M26 22C26 24.2091 27.7909 26 30 26C27.7909 26 26 27.7909 26 30C26 27.7909 24.2091 26 22 26C24.2091 26 26 24.2091 26 22Z" fill="#FF244A" stroke="white" stroke-width="2" stroke-linecap="round" stroke-linejoin="round"/>
</g>
<defs>
<clipPath id="clip0_4_70">
<rect width="40" height="40" fill="white"/>
</clipPath>
</defs>
</svg>
