<svg width="48" height="48" viewBox="0 0 48 48" fill="none" xmlns="http://www.w3.org/2000/svg">
<g clip-path="url(#clip0_4_91)">
<path d="M24 48C37.2548 48 48 37.2548 48 24C48 10.7452 37.2548 0 24 0C10.7452 0 0 10.7452 0 24C0 37.2548 10.7452 48 24 48Z" fill="#FF758D"/>
<path d="M21.5 11C21.5 16.799 26.201 21.5 32 21.5C26.201 21.5 21.5 26.201 21.5 32C21.5 26.201 16.799 21.5 11 21.5C16.799 21.5 21.5 16.799 21.5 11Z" stroke="white" stroke-width="2" stroke-linecap="round" stroke-linejoin="round"/>
<path d="M31.5 27C31.5 29.4853 33.5147 31.5 36 31.5C33.5147 31.5 31.5 33.5147 31.5 36C31.5 33.5147 29.4853 31.5 27 31.5C29.4853 31.5 31.5 29.4853 31.5 27Z" fill="#FF244A" stroke="white" stroke-width="2" stroke-linecap="round" stroke-linejoin="round"/>
</g>
<defs>
<clipPath id="clip0_4_91">
<rect width="48" height="48" fill="white"/>
</clipPath>
</defs>
</svg>
